<mxfile host="app.diagrams.net" agent="Mozilla/5.0 (Macintosh; Intel Mac OS X 10_15_7) AppleWebKit/537.36 (KHTML, like Gecko) Chrome/128.0.0.0 Safari/537.36" version="24.7.8">
  <diagram id="C5RBs43oDa-KdzZeNtuy" name="Page-1">
    <mxGraphModel dx="648" dy="773" grid="1" gridSize="10" guides="1" tooltips="1" connect="1" arrows="1" fold="1" page="1" pageScale="1" pageWidth="827" pageHeight="1169" math="0" shadow="0">
      <root>
        <mxCell id="WIyWlLk6GJQsqaUBKTNV-0" />
        <mxCell id="WIyWlLk6GJQsqaUBKTNV-1" parent="WIyWlLk6GJQsqaUBKTNV-0" />
        <mxCell id="WIyWlLk6GJQsqaUBKTNV-2" value="" style="rounded=0;html=1;jettySize=auto;orthogonalLoop=1;fontSize=11;endArrow=block;endFill=0;endSize=8;strokeWidth=1;shadow=0;labelBackgroundColor=none;edgeStyle=orthogonalEdgeStyle;" parent="WIyWlLk6GJQsqaUBKTNV-1" source="WIyWlLk6GJQsqaUBKTNV-3" target="WIyWlLk6GJQsqaUBKTNV-6" edge="1">
          <mxGeometry relative="1" as="geometry" />
        </mxCell>
        <mxCell id="WIyWlLk6GJQsqaUBKTNV-3" value="START" style="rounded=1;whiteSpace=wrap;html=1;fontSize=12;glass=0;strokeWidth=1;shadow=0;" parent="WIyWlLk6GJQsqaUBKTNV-1" vertex="1">
          <mxGeometry x="110" y="70" width="120" height="40" as="geometry" />
        </mxCell>
        <mxCell id="WIyWlLk6GJQsqaUBKTNV-4" value="接続済" style="rounded=0;html=1;jettySize=auto;orthogonalLoop=1;fontSize=11;endArrow=block;endFill=0;endSize=8;strokeWidth=1;shadow=0;labelBackgroundColor=none;edgeStyle=orthogonalEdgeStyle;" parent="WIyWlLk6GJQsqaUBKTNV-1" source="WIyWlLk6GJQsqaUBKTNV-6" target="WIyWlLk6GJQsqaUBKTNV-10" edge="1">
          <mxGeometry x="-0.5" y="-30" relative="1" as="geometry">
            <mxPoint as="offset" />
          </mxGeometry>
        </mxCell>
        <mxCell id="WIyWlLk6GJQsqaUBKTNV-5" value="未接続" style="edgeStyle=orthogonalEdgeStyle;rounded=0;html=1;jettySize=auto;orthogonalLoop=1;fontSize=11;endArrow=block;endFill=0;endSize=8;strokeWidth=1;shadow=0;labelBackgroundColor=none;exitX=1;exitY=0.5;exitDx=0;exitDy=0;entryX=0.5;entryY=1;entryDx=0;entryDy=0;" parent="WIyWlLk6GJQsqaUBKTNV-1" edge="1">
          <mxGeometry x="-0.7552" y="10" relative="1" as="geometry">
            <mxPoint as="offset" />
            <mxPoint x="220" y="199.99999999999994" as="sourcePoint" />
            <mxPoint x="255" y="150" as="targetPoint" />
            <Array as="points">
              <mxPoint x="255" y="200" />
            </Array>
          </mxGeometry>
        </mxCell>
        <mxCell id="WIyWlLk6GJQsqaUBKTNV-6" value="インターネット" style="rhombus;whiteSpace=wrap;html=1;shadow=0;fontFamily=Helvetica;fontSize=12;align=center;strokeWidth=1;spacing=6;spacingTop=-4;" parent="WIyWlLk6GJQsqaUBKTNV-1" vertex="1">
          <mxGeometry x="120" y="160" width="100" height="80" as="geometry" />
        </mxCell>
        <mxCell id="WIyWlLk6GJQsqaUBKTNV-7" value="exit 1" style="rounded=1;whiteSpace=wrap;html=1;fontSize=12;glass=0;strokeWidth=1;shadow=0;" parent="WIyWlLk6GJQsqaUBKTNV-1" vertex="1">
          <mxGeometry x="230" y="130" width="50" height="20" as="geometry" />
        </mxCell>
        <mxCell id="WIyWlLk6GJQsqaUBKTNV-8" value="無い" style="rounded=0;html=1;jettySize=auto;orthogonalLoop=1;fontSize=11;endArrow=block;endFill=0;endSize=8;strokeWidth=1;shadow=0;labelBackgroundColor=none;edgeStyle=orthogonalEdgeStyle;" parent="WIyWlLk6GJQsqaUBKTNV-1" source="WIyWlLk6GJQsqaUBKTNV-10" target="WIyWlLk6GJQsqaUBKTNV-11" edge="1">
          <mxGeometry x="-0.5" y="20" relative="1" as="geometry">
            <mxPoint as="offset" />
          </mxGeometry>
        </mxCell>
        <mxCell id="yHdLgCbYJAdLB_9oFA_i-16" value="" style="edgeStyle=orthogonalEdgeStyle;rounded=0;orthogonalLoop=1;jettySize=auto;html=1;" edge="1" parent="WIyWlLk6GJQsqaUBKTNV-1" source="WIyWlLk6GJQsqaUBKTNV-10" target="yHdLgCbYJAdLB_9oFA_i-15">
          <mxGeometry relative="1" as="geometry" />
        </mxCell>
        <mxCell id="yHdLgCbYJAdLB_9oFA_i-30" value="有る" style="edgeLabel;html=1;align=center;verticalAlign=middle;resizable=0;points=[];" vertex="1" connectable="0" parent="yHdLgCbYJAdLB_9oFA_i-16">
          <mxGeometry x="-0.4805" relative="1" as="geometry">
            <mxPoint x="9" as="offset" />
          </mxGeometry>
        </mxCell>
        <mxCell id="WIyWlLk6GJQsqaUBKTNV-10" value="DISKの&lt;div&gt;有無&lt;/div&gt;" style="rhombus;whiteSpace=wrap;html=1;shadow=0;fontFamily=Helvetica;fontSize=12;align=center;strokeWidth=1;spacing=6;spacingTop=0;" parent="WIyWlLk6GJQsqaUBKTNV-1" vertex="1">
          <mxGeometry x="120" y="280" width="100" height="80" as="geometry" />
        </mxCell>
        <mxCell id="WIyWlLk6GJQsqaUBKTNV-11" value="exit 1" style="rounded=1;whiteSpace=wrap;html=1;fontSize=12;glass=0;strokeWidth=1;shadow=0;" parent="WIyWlLk6GJQsqaUBKTNV-1" vertex="1">
          <mxGeometry x="145" y="400" width="50" height="20" as="geometry" />
        </mxCell>
        <mxCell id="yHdLgCbYJAdLB_9oFA_i-1" value="" style="edgeStyle=elbowEdgeStyle;elbow=vertical;endArrow=classic;html=1;curved=0;rounded=0;endSize=8;startSize=8;hachureGap=4;fontFamily=Architects Daughter;fontSource=https%3A%2F%2Ffonts.googleapis.com%2Fcss%3Ffamily%3DArchitects%2BDaughter;exitX=0;exitY=0.5;exitDx=0;exitDy=0;entryX=0;entryY=0.5;entryDx=0;entryDy=0;" edge="1" parent="WIyWlLk6GJQsqaUBKTNV-1" source="WIyWlLk6GJQsqaUBKTNV-10" target="WIyWlLk6GJQsqaUBKTNV-11">
          <mxGeometry width="50" height="50" relative="1" as="geometry">
            <mxPoint x="160" y="610" as="sourcePoint" />
            <mxPoint x="210" y="560" as="targetPoint" />
            <Array as="points">
              <mxPoint x="100" y="380" />
            </Array>
          </mxGeometry>
        </mxCell>
        <mxCell id="yHdLgCbYJAdLB_9oFA_i-3" value="DISKと&lt;div&gt;SERVERが&lt;/div&gt;&lt;div&gt;無い&lt;/div&gt;" style="edgeLabel;html=1;align=center;verticalAlign=middle;resizable=0;points=[];" vertex="1" connectable="0" parent="yHdLgCbYJAdLB_9oFA_i-1">
          <mxGeometry x="-0.6645" y="1" relative="1" as="geometry">
            <mxPoint x="-31" y="44" as="offset" />
          </mxGeometry>
        </mxCell>
        <mxCell id="yHdLgCbYJAdLB_9oFA_i-12" value="" style="edgeStyle=orthogonalEdgeStyle;rounded=0;orthogonalLoop=1;jettySize=auto;html=1;endArrow=oval;endFill=1;" edge="1" parent="WIyWlLk6GJQsqaUBKTNV-1">
          <mxGeometry relative="1" as="geometry">
            <mxPoint x="100" y="130" as="sourcePoint" />
            <mxPoint x="170" y="130" as="targetPoint" />
          </mxGeometry>
        </mxCell>
        <mxCell id="yHdLgCbYJAdLB_9oFA_i-13" value="ログ生成" style="rounded=1;whiteSpace=wrap;html=1;fontSize=12;glass=0;strokeWidth=1;shadow=0;" vertex="1" parent="WIyWlLk6GJQsqaUBKTNV-1">
          <mxGeometry x="40" y="120" width="60" height="20" as="geometry" />
        </mxCell>
        <mxCell id="yHdLgCbYJAdLB_9oFA_i-20" value="" style="edgeStyle=orthogonalEdgeStyle;rounded=0;orthogonalLoop=1;jettySize=auto;html=1;" edge="1" parent="WIyWlLk6GJQsqaUBKTNV-1" source="yHdLgCbYJAdLB_9oFA_i-15" target="yHdLgCbYJAdLB_9oFA_i-19">
          <mxGeometry relative="1" as="geometry" />
        </mxCell>
        <mxCell id="yHdLgCbYJAdLB_9oFA_i-21" value="有る" style="edgeLabel;html=1;align=center;verticalAlign=middle;resizable=0;points=[];" vertex="1" connectable="0" parent="yHdLgCbYJAdLB_9oFA_i-20">
          <mxGeometry x="-0.2214" relative="1" as="geometry">
            <mxPoint y="-5" as="offset" />
          </mxGeometry>
        </mxCell>
        <mxCell id="yHdLgCbYJAdLB_9oFA_i-23" value="無い" style="edgeStyle=orthogonalEdgeStyle;rounded=0;orthogonalLoop=1;jettySize=auto;html=1;entryX=1;entryY=0.5;entryDx=0;entryDy=0;" edge="1" parent="WIyWlLk6GJQsqaUBKTNV-1" source="yHdLgCbYJAdLB_9oFA_i-15" target="WIyWlLk6GJQsqaUBKTNV-11">
          <mxGeometry x="-0.7634" relative="1" as="geometry">
            <Array as="points">
              <mxPoint x="314" y="410" />
            </Array>
            <mxPoint as="offset" />
          </mxGeometry>
        </mxCell>
        <mxCell id="yHdLgCbYJAdLB_9oFA_i-15" value="SERVERの&lt;div&gt;有無&lt;/div&gt;" style="rhombus;whiteSpace=wrap;html=1;shadow=0;fontFamily=Helvetica;fontSize=12;align=center;strokeWidth=1;spacing=6;spacingTop=3;verticalAlign=middle;horizontal=1;spacingLeft=1;" vertex="1" parent="WIyWlLk6GJQsqaUBKTNV-1">
          <mxGeometry x="264" y="280" width="100" height="80" as="geometry" />
        </mxCell>
        <mxCell id="yHdLgCbYJAdLB_9oFA_i-27" value="" style="edgeStyle=orthogonalEdgeStyle;rounded=0;orthogonalLoop=1;jettySize=auto;html=1;" edge="1" parent="WIyWlLk6GJQsqaUBKTNV-1" source="yHdLgCbYJAdLB_9oFA_i-19" target="yHdLgCbYJAdLB_9oFA_i-26">
          <mxGeometry relative="1" as="geometry" />
        </mxCell>
        <mxCell id="yHdLgCbYJAdLB_9oFA_i-19" value="sleep 0.5" style="whiteSpace=wrap;html=1;shadow=0;strokeWidth=1;spacing=6;spacingTop=-1;spacingLeft=1;verticalAlign=middle;" vertex="1" parent="WIyWlLk6GJQsqaUBKTNV-1">
          <mxGeometry x="281" y="220" width="66" height="20" as="geometry" />
        </mxCell>
        <mxCell id="yHdLgCbYJAdLB_9oFA_i-29" value="" style="edgeStyle=orthogonalEdgeStyle;rounded=0;orthogonalLoop=1;jettySize=auto;html=1;" edge="1" parent="WIyWlLk6GJQsqaUBKTNV-1" source="yHdLgCbYJAdLB_9oFA_i-26" target="yHdLgCbYJAdLB_9oFA_i-28">
          <mxGeometry relative="1" as="geometry" />
        </mxCell>
        <mxCell id="yHdLgCbYJAdLB_9oFA_i-26" value="enqueue" style="whiteSpace=wrap;html=1;shadow=0;strokeWidth=1;spacing=6;spacingTop=-1;spacingLeft=1;verticalAlign=middle;" vertex="1" parent="WIyWlLk6GJQsqaUBKTNV-1">
          <mxGeometry x="281" y="170" width="66" height="20" as="geometry" />
        </mxCell>
        <mxCell id="yHdLgCbYJAdLB_9oFA_i-32" value="" style="edgeStyle=orthogonalEdgeStyle;rounded=0;orthogonalLoop=1;jettySize=auto;html=1;exitX=0.5;exitY=0;exitDx=0;exitDy=0;entryX=0;entryY=0.5;entryDx=0;entryDy=0;" edge="1" parent="WIyWlLk6GJQsqaUBKTNV-1" source="yHdLgCbYJAdLB_9oFA_i-28" target="yHdLgCbYJAdLB_9oFA_i-34">
          <mxGeometry relative="1" as="geometry">
            <Array as="points">
              <mxPoint x="314" y="80" />
            </Array>
          </mxGeometry>
        </mxCell>
        <mxCell id="yHdLgCbYJAdLB_9oFA_i-33" value="退避" style="edgeLabel;html=1;align=center;verticalAlign=middle;resizable=0;points=[];" vertex="1" connectable="0" parent="yHdLgCbYJAdLB_9oFA_i-32">
          <mxGeometry x="-0.5463" relative="1" as="geometry">
            <mxPoint x="46" y="60" as="offset" />
          </mxGeometry>
        </mxCell>
        <mxCell id="yHdLgCbYJAdLB_9oFA_i-28" value="cd" style="whiteSpace=wrap;html=1;shadow=0;strokeWidth=1;spacing=6;spacingTop=-1;spacingLeft=1;verticalAlign=middle;" vertex="1" parent="WIyWlLk6GJQsqaUBKTNV-1">
          <mxGeometry x="297.5" y="130" width="33" height="20" as="geometry" />
        </mxCell>
        <mxCell id="yHdLgCbYJAdLB_9oFA_i-31" value="exit" style="whiteSpace=wrap;html=1;shadow=0;strokeWidth=1;spacing=6;spacingTop=-1;spacingLeft=1;verticalAlign=middle;" vertex="1" parent="WIyWlLk6GJQsqaUBKTNV-1">
          <mxGeometry x="364" y="100" width="33" height="20" as="geometry" />
        </mxCell>
        <mxCell id="yHdLgCbYJAdLB_9oFA_i-37" value="" style="edgeStyle=orthogonalEdgeStyle;rounded=0;orthogonalLoop=1;jettySize=auto;html=1;" edge="1" parent="WIyWlLk6GJQsqaUBKTNV-1" source="yHdLgCbYJAdLB_9oFA_i-34" target="yHdLgCbYJAdLB_9oFA_i-36">
          <mxGeometry relative="1" as="geometry" />
        </mxCell>
        <mxCell id="yHdLgCbYJAdLB_9oFA_i-38" value="存在&lt;div&gt;しない&lt;/div&gt;" style="edgeLabel;html=1;align=center;verticalAlign=middle;resizable=0;points=[];" vertex="1" connectable="0" parent="yHdLgCbYJAdLB_9oFA_i-37">
          <mxGeometry x="-0.5071" y="-1" relative="1" as="geometry">
            <mxPoint x="12" y="-1" as="offset" />
          </mxGeometry>
        </mxCell>
        <mxCell id="yHdLgCbYJAdLB_9oFA_i-40" value="" style="edgeStyle=orthogonalEdgeStyle;rounded=0;orthogonalLoop=1;jettySize=auto;html=1;entryX=0.5;entryY=0;entryDx=0;entryDy=0;" edge="1" parent="WIyWlLk6GJQsqaUBKTNV-1">
          <mxGeometry relative="1" as="geometry">
            <mxPoint x="479.51724137931046" y="120.00275862068953" as="sourcePoint" />
            <mxPoint x="403.25" y="210.02" as="targetPoint" />
            <Array as="points">
              <mxPoint x="480" y="140.02" />
              <mxPoint x="403" y="140.02" />
            </Array>
          </mxGeometry>
        </mxCell>
        <mxCell id="yHdLgCbYJAdLB_9oFA_i-43" value="存在するが&lt;div&gt;ディレクトリ&lt;/div&gt;&lt;div&gt;ではない&lt;/div&gt;" style="edgeLabel;html=1;align=center;verticalAlign=middle;resizable=0;points=[];" vertex="1" connectable="0" parent="yHdLgCbYJAdLB_9oFA_i-40">
          <mxGeometry x="-0.0796" y="-1" relative="1" as="geometry">
            <mxPoint x="16" y="26" as="offset" />
          </mxGeometry>
        </mxCell>
        <mxCell id="yHdLgCbYJAdLB_9oFA_i-34" value="date_dirの&lt;div&gt;有無&lt;/div&gt;" style="rhombus;whiteSpace=wrap;html=1;shadow=0;strokeWidth=1;spacing=6;spacingTop=-1;spacingLeft=1;" vertex="1" parent="WIyWlLk6GJQsqaUBKTNV-1">
          <mxGeometry x="439.5" y="40" width="80" height="80" as="geometry" />
        </mxCell>
        <mxCell id="yHdLgCbYJAdLB_9oFA_i-45" value="" style="edgeStyle=orthogonalEdgeStyle;rounded=0;orthogonalLoop=1;jettySize=auto;html=1;" edge="1" parent="WIyWlLk6GJQsqaUBKTNV-1" source="yHdLgCbYJAdLB_9oFA_i-36" target="yHdLgCbYJAdLB_9oFA_i-44">
          <mxGeometry relative="1" as="geometry">
            <Array as="points">
              <mxPoint x="605" y="120" />
              <mxPoint x="605" y="120" />
            </Array>
          </mxGeometry>
        </mxCell>
        <mxCell id="yHdLgCbYJAdLB_9oFA_i-36" value="mkdir" style="whiteSpace=wrap;html=1;shadow=0;strokeWidth=1;spacing=6;spacingTop=-1;spacingLeft=1;" vertex="1" parent="WIyWlLk6GJQsqaUBKTNV-1">
          <mxGeometry x="579.5" y="70" width="50.5" height="20" as="geometry" />
        </mxCell>
        <mxCell id="yHdLgCbYJAdLB_9oFA_i-39" value="mkdir" style="whiteSpace=wrap;html=1;shadow=0;strokeWidth=1;spacing=6;spacingTop=-1;spacingLeft=1;" vertex="1" parent="WIyWlLk6GJQsqaUBKTNV-1">
          <mxGeometry x="383" y="210" width="40.5" height="20" as="geometry" />
        </mxCell>
        <mxCell id="yHdLgCbYJAdLB_9oFA_i-41" value="mv" style="whiteSpace=wrap;html=1;shadow=0;strokeWidth=1;spacing=6;spacingTop=-1;spacingLeft=1;align=center;" vertex="1" parent="WIyWlLk6GJQsqaUBKTNV-1">
          <mxGeometry x="423.5" y="210" width="30" height="20" as="geometry" />
        </mxCell>
        <mxCell id="yHdLgCbYJAdLB_9oFA_i-46" value="" style="edgeStyle=orthogonalEdgeStyle;rounded=0;orthogonalLoop=1;jettySize=auto;html=1;" edge="1" parent="WIyWlLk6GJQsqaUBKTNV-1" source="yHdLgCbYJAdLB_9oFA_i-42" target="yHdLgCbYJAdLB_9oFA_i-44">
          <mxGeometry relative="1" as="geometry" />
        </mxCell>
        <mxCell id="yHdLgCbYJAdLB_9oFA_i-42" value="mkdir" style="whiteSpace=wrap;html=1;shadow=0;strokeWidth=1;spacing=6;spacingTop=-1;spacingLeft=1;" vertex="1" parent="WIyWlLk6GJQsqaUBKTNV-1">
          <mxGeometry x="453.5" y="210" width="40.5" height="20" as="geometry" />
        </mxCell>
        <mxCell id="yHdLgCbYJAdLB_9oFA_i-54" value="" style="edgeStyle=orthogonalEdgeStyle;rounded=0;orthogonalLoop=1;jettySize=auto;html=1;entryX=0.5;entryY=0;entryDx=0;entryDy=0;" edge="1" parent="WIyWlLk6GJQsqaUBKTNV-1" source="yHdLgCbYJAdLB_9oFA_i-44" target="yHdLgCbYJAdLB_9oFA_i-56">
          <mxGeometry relative="1" as="geometry">
            <mxPoint x="629.1200000000001" y="285.03999999999996" as="targetPoint" />
            <Array as="points">
              <mxPoint x="605" y="320" />
              <mxPoint x="718" y="320" />
            </Array>
          </mxGeometry>
        </mxCell>
        <mxCell id="yHdLgCbYJAdLB_9oFA_i-81" value="&lt;div&gt;&lt;br&gt;&lt;/div&gt;" style="edgeLabel;html=1;align=center;verticalAlign=middle;resizable=0;points=[];" vertex="1" connectable="0" parent="yHdLgCbYJAdLB_9oFA_i-54">
          <mxGeometry x="-0.7339" y="1" relative="1" as="geometry">
            <mxPoint x="2" y="-14" as="offset" />
          </mxGeometry>
        </mxCell>
        <mxCell id="yHdLgCbYJAdLB_9oFA_i-71" value="" style="edgeStyle=orthogonalEdgeStyle;rounded=0;orthogonalLoop=1;jettySize=auto;html=1;exitX=1;exitY=0.5;exitDx=0;exitDy=0;entryX=1;entryY=0.5;entryDx=0;entryDy=0;" edge="1" parent="WIyWlLk6GJQsqaUBKTNV-1" source="yHdLgCbYJAdLB_9oFA_i-90" target="yHdLgCbYJAdLB_9oFA_i-70">
          <mxGeometry relative="1" as="geometry">
            <Array as="points">
              <mxPoint x="780" y="260" />
              <mxPoint x="780" y="460" />
            </Array>
          </mxGeometry>
        </mxCell>
        <mxCell id="yHdLgCbYJAdLB_9oFA_i-93" value="無い" style="edgeLabel;html=1;align=center;verticalAlign=middle;resizable=0;points=[];" vertex="1" connectable="0" parent="yHdLgCbYJAdLB_9oFA_i-71">
          <mxGeometry x="-0.9201" y="1" relative="1" as="geometry">
            <mxPoint as="offset" />
          </mxGeometry>
        </mxCell>
        <mxCell id="yHdLgCbYJAdLB_9oFA_i-44" value="forループ&lt;div&gt;ファイル検索&lt;/div&gt;" style="shape=trapezoid;perimeter=trapezoidPerimeter;whiteSpace=wrap;html=1;fixedSize=1;shadow=0;strokeWidth=1;spacing=6;spacingTop=-1;spacingLeft=1;" vertex="1" parent="WIyWlLk6GJQsqaUBKTNV-1">
          <mxGeometry x="544.75" y="150" width="120" height="60" as="geometry" />
        </mxCell>
        <mxCell id="yHdLgCbYJAdLB_9oFA_i-47" value="mp4&lt;div&gt;ファイル&lt;/div&gt;" style="rhombus;whiteSpace=wrap;html=1;shadow=0;strokeWidth=1;spacing=6;spacingTop=-1;spacingLeft=1;" vertex="1" parent="WIyWlLk6GJQsqaUBKTNV-1">
          <mxGeometry x="451.5" y="350" width="80" height="60" as="geometry" />
        </mxCell>
        <mxCell id="yHdLgCbYJAdLB_9oFA_i-49" value="mov&lt;div&gt;ファイル&lt;/div&gt;" style="rhombus;whiteSpace=wrap;html=1;shadow=0;strokeWidth=1;spacing=6;spacingTop=-1;spacingLeft=1;" vertex="1" parent="WIyWlLk6GJQsqaUBKTNV-1">
          <mxGeometry x="564.75" y="350" width="80" height="60" as="geometry" />
        </mxCell>
        <mxCell id="yHdLgCbYJAdLB_9oFA_i-56" value="avi&lt;div&gt;ファイル&lt;/div&gt;" style="rhombus;whiteSpace=wrap;html=1;shadow=0;strokeWidth=1;spacing=6;spacingTop=-1;spacingLeft=1;" vertex="1" parent="WIyWlLk6GJQsqaUBKTNV-1">
          <mxGeometry x="678" y="350" width="80" height="60" as="geometry" />
        </mxCell>
        <mxCell id="yHdLgCbYJAdLB_9oFA_i-77" value="" style="edgeStyle=orthogonalEdgeStyle;rounded=0;orthogonalLoop=1;jettySize=auto;html=1;" edge="1" parent="WIyWlLk6GJQsqaUBKTNV-1" source="yHdLgCbYJAdLB_9oFA_i-70" target="yHdLgCbYJAdLB_9oFA_i-76">
          <mxGeometry relative="1" as="geometry" />
        </mxCell>
        <mxCell id="yHdLgCbYJAdLB_9oFA_i-70" value="rsync" style="whiteSpace=wrap;html=1;shadow=0;strokeWidth=1;spacing=6;spacingTop=-1;spacingLeft=1;" vertex="1" parent="WIyWlLk6GJQsqaUBKTNV-1">
          <mxGeometry x="145.75" y="450" width="48.5" height="20" as="geometry" />
        </mxCell>
        <mxCell id="yHdLgCbYJAdLB_9oFA_i-79" value="" style="edgeStyle=orthogonalEdgeStyle;rounded=0;orthogonalLoop=1;jettySize=auto;html=1;" edge="1" parent="WIyWlLk6GJQsqaUBKTNV-1" source="yHdLgCbYJAdLB_9oFA_i-76" target="yHdLgCbYJAdLB_9oFA_i-78">
          <mxGeometry relative="1" as="geometry" />
        </mxCell>
        <mxCell id="yHdLgCbYJAdLB_9oFA_i-76" value="rsync&lt;div&gt;成功・失敗&lt;/div&gt;" style="rhombus;whiteSpace=wrap;html=1;shadow=0;strokeWidth=1;spacing=6;spacingTop=-10;spacingLeft=1;" vertex="1" parent="WIyWlLk6GJQsqaUBKTNV-1">
          <mxGeometry x="130" y="520" width="80" height="70" as="geometry" />
        </mxCell>
        <mxCell id="yHdLgCbYJAdLB_9oFA_i-78" value="sleep 3" style="whiteSpace=wrap;html=1;shadow=0;strokeWidth=1;spacing=6;spacingTop=-1;spacingLeft=1;" vertex="1" parent="WIyWlLk6GJQsqaUBKTNV-1">
          <mxGeometry x="70" y="490" width="50" height="25" as="geometry" />
        </mxCell>
        <mxCell id="yHdLgCbYJAdLB_9oFA_i-80" value="" style="edgeStyle=orthogonalEdgeStyle;rounded=0;orthogonalLoop=1;jettySize=auto;html=1;entryX=0;entryY=0.5;entryDx=0;entryDy=0;" edge="1" parent="WIyWlLk6GJQsqaUBKTNV-1" target="yHdLgCbYJAdLB_9oFA_i-70">
          <mxGeometry relative="1" as="geometry">
            <mxPoint x="95" y="490" as="sourcePoint" />
            <mxPoint x="105" y="525" as="targetPoint" />
            <Array as="points">
              <mxPoint x="95" y="460" />
            </Array>
          </mxGeometry>
        </mxCell>
        <mxCell id="yHdLgCbYJAdLB_9oFA_i-84" value="" style="edgeStyle=orthogonalEdgeStyle;rounded=0;orthogonalLoop=1;jettySize=auto;html=1;entryX=0.5;entryY=0;entryDx=0;entryDy=0;exitX=0.5;exitY=1;exitDx=0;exitDy=0;" edge="1" parent="WIyWlLk6GJQsqaUBKTNV-1" source="yHdLgCbYJAdLB_9oFA_i-44" target="yHdLgCbYJAdLB_9oFA_i-47">
          <mxGeometry relative="1" as="geometry">
            <mxPoint x="615" y="220" as="sourcePoint" />
            <mxPoint x="728" y="290" as="targetPoint" />
            <Array as="points">
              <mxPoint x="605" y="320" />
              <mxPoint x="492" y="320" />
            </Array>
          </mxGeometry>
        </mxCell>
        <mxCell id="yHdLgCbYJAdLB_9oFA_i-91" value="" style="edgeStyle=orthogonalEdgeStyle;rounded=0;orthogonalLoop=1;jettySize=auto;html=1;exitX=0.5;exitY=1;exitDx=0;exitDy=0;startArrow=classic;startFill=1;" edge="1" parent="WIyWlLk6GJQsqaUBKTNV-1" source="yHdLgCbYJAdLB_9oFA_i-44" target="yHdLgCbYJAdLB_9oFA_i-90">
          <mxGeometry relative="1" as="geometry">
            <mxPoint x="605" y="210" as="sourcePoint" />
            <mxPoint x="604.39" y="330" as="targetPoint" />
          </mxGeometry>
        </mxCell>
        <mxCell id="yHdLgCbYJAdLB_9oFA_i-90" value="ファイルの&lt;div&gt;有無&lt;/div&gt;" style="rhombus;whiteSpace=wrap;html=1;shadow=0;strokeWidth=1;spacing=6;spacingTop=-1;spacingLeft=1;" vertex="1" parent="WIyWlLk6GJQsqaUBKTNV-1">
          <mxGeometry x="564.75" y="240" width="80" height="40" as="geometry" />
        </mxCell>
        <mxCell id="yHdLgCbYJAdLB_9oFA_i-92" value="" style="edgeStyle=orthogonalEdgeStyle;rounded=0;orthogonalLoop=1;jettySize=auto;html=1;entryX=0.5;entryY=0;entryDx=0;entryDy=0;" edge="1" parent="WIyWlLk6GJQsqaUBKTNV-1" target="yHdLgCbYJAdLB_9oFA_i-49">
          <mxGeometry relative="1" as="geometry">
            <mxPoint x="604.39" y="300" as="sourcePoint" />
            <mxPoint x="604.39" y="360" as="targetPoint" />
            <Array as="points">
              <mxPoint x="604" y="330" />
              <mxPoint x="605" y="330" />
            </Array>
          </mxGeometry>
        </mxCell>
        <mxCell id="yHdLgCbYJAdLB_9oFA_i-94" value="有る" style="edgeLabel;html=1;align=center;verticalAlign=middle;resizable=0;points=[];" vertex="1" connectable="0" parent="yHdLgCbYJAdLB_9oFA_i-92">
          <mxGeometry x="-0.7" y="1" relative="1" as="geometry">
            <mxPoint y="-10" as="offset" />
          </mxGeometry>
        </mxCell>
        <mxCell id="yHdLgCbYJAdLB_9oFA_i-95" value="" style="edgeStyle=orthogonalEdgeStyle;rounded=0;orthogonalLoop=1;jettySize=auto;html=1;exitX=0.5;exitY=1;exitDx=0;exitDy=0;" edge="1" parent="WIyWlLk6GJQsqaUBKTNV-1" source="yHdLgCbYJAdLB_9oFA_i-47">
          <mxGeometry relative="1" as="geometry">
            <mxPoint x="491" y="420" as="sourcePoint" />
            <mxPoint x="491" y="460" as="targetPoint" />
            <Array as="points">
              <mxPoint x="491" y="450" />
              <mxPoint x="491" y="450" />
            </Array>
          </mxGeometry>
        </mxCell>
        <mxCell id="yHdLgCbYJAdLB_9oFA_i-107" value="無い" style="edgeLabel;html=1;align=center;verticalAlign=middle;resizable=0;points=[];" vertex="1" connectable="0" parent="yHdLgCbYJAdLB_9oFA_i-95">
          <mxGeometry x="-0.2952" y="1" relative="1" as="geometry">
            <mxPoint as="offset" />
          </mxGeometry>
        </mxCell>
        <mxCell id="yHdLgCbYJAdLB_9oFA_i-97" value="" style="edgeStyle=orthogonalEdgeStyle;rounded=0;orthogonalLoop=1;jettySize=auto;html=1;exitX=0.5;exitY=1;exitDx=0;exitDy=0;" edge="1" parent="WIyWlLk6GJQsqaUBKTNV-1" source="yHdLgCbYJAdLB_9oFA_i-49">
          <mxGeometry relative="1" as="geometry">
            <mxPoint x="604.91" y="420" as="sourcePoint" />
            <mxPoint x="604.5899999999999" y="460" as="targetPoint" />
            <Array as="points">
              <mxPoint x="605" y="450" />
            </Array>
          </mxGeometry>
        </mxCell>
        <mxCell id="yHdLgCbYJAdLB_9oFA_i-104" value="無い" style="edgeLabel;html=1;align=center;verticalAlign=middle;resizable=0;points=[];" vertex="1" connectable="0" parent="yHdLgCbYJAdLB_9oFA_i-97">
          <mxGeometry x="-0.2335" relative="1" as="geometry">
            <mxPoint as="offset" />
          </mxGeometry>
        </mxCell>
        <mxCell id="yHdLgCbYJAdLB_9oFA_i-98" value="" style="edgeStyle=orthogonalEdgeStyle;rounded=0;orthogonalLoop=1;jettySize=auto;html=1;exitX=0.5;exitY=1;exitDx=0;exitDy=0;" edge="1" parent="WIyWlLk6GJQsqaUBKTNV-1" source="yHdLgCbYJAdLB_9oFA_i-56">
          <mxGeometry relative="1" as="geometry">
            <mxPoint x="720" y="420" as="sourcePoint" />
            <mxPoint x="717.93" y="460" as="targetPoint" />
            <Array as="points" />
          </mxGeometry>
        </mxCell>
        <mxCell id="yHdLgCbYJAdLB_9oFA_i-103" value="無い" style="edgeLabel;html=1;align=center;verticalAlign=middle;resizable=0;points=[];" vertex="1" connectable="0" parent="yHdLgCbYJAdLB_9oFA_i-98">
          <mxGeometry x="-0.3154" relative="1" as="geometry">
            <mxPoint as="offset" />
          </mxGeometry>
        </mxCell>
        <mxCell id="yHdLgCbYJAdLB_9oFA_i-99" value="" style="edgeStyle=orthogonalEdgeStyle;rounded=0;orthogonalLoop=1;jettySize=auto;html=1;entryX=0.5;entryY=0;entryDx=0;entryDy=0;exitX=0;exitY=0.5;exitDx=0;exitDy=0;" edge="1" parent="WIyWlLk6GJQsqaUBKTNV-1" source="yHdLgCbYJAdLB_9oFA_i-49">
          <mxGeometry relative="1" as="geometry">
            <mxPoint x="661.25" y="320" as="sourcePoint" />
            <mxPoint x="548.25" y="460" as="targetPoint" />
            <Array as="points">
              <mxPoint x="548" y="380" />
              <mxPoint x="548" y="430" />
              <mxPoint x="548" y="430" />
            </Array>
          </mxGeometry>
        </mxCell>
        <mxCell id="yHdLgCbYJAdLB_9oFA_i-105" value="有る" style="edgeLabel;html=1;align=center;verticalAlign=middle;resizable=0;points=[];" vertex="1" connectable="0" parent="yHdLgCbYJAdLB_9oFA_i-99">
          <mxGeometry x="-0.1891" relative="1" as="geometry">
            <mxPoint as="offset" />
          </mxGeometry>
        </mxCell>
        <mxCell id="yHdLgCbYJAdLB_9oFA_i-100" value="" style="edgeStyle=orthogonalEdgeStyle;rounded=0;orthogonalLoop=1;jettySize=auto;html=1;exitX=0;exitY=0.5;exitDx=0;exitDy=0;" edge="1" parent="WIyWlLk6GJQsqaUBKTNV-1" source="yHdLgCbYJAdLB_9oFA_i-56">
          <mxGeometry relative="1" as="geometry">
            <mxPoint x="575" y="390" as="sourcePoint" />
            <mxPoint x="660" y="460" as="targetPoint" />
            <Array as="points">
              <mxPoint x="660" y="380" />
            </Array>
          </mxGeometry>
        </mxCell>
        <mxCell id="yHdLgCbYJAdLB_9oFA_i-102" value="有る" style="edgeLabel;html=1;align=center;verticalAlign=middle;resizable=0;points=[];" vertex="1" connectable="0" parent="yHdLgCbYJAdLB_9oFA_i-100">
          <mxGeometry x="-0.3338" y="-1" relative="1" as="geometry">
            <mxPoint as="offset" />
          </mxGeometry>
        </mxCell>
        <mxCell id="yHdLgCbYJAdLB_9oFA_i-101" value="" style="edgeStyle=orthogonalEdgeStyle;rounded=0;orthogonalLoop=1;jettySize=auto;html=1;entryX=0.5;entryY=0;entryDx=0;entryDy=0;exitX=0;exitY=0.5;exitDx=0;exitDy=0;" edge="1" parent="WIyWlLk6GJQsqaUBKTNV-1" source="yHdLgCbYJAdLB_9oFA_i-47">
          <mxGeometry relative="1" as="geometry">
            <mxPoint x="451.49" y="380.01" as="sourcePoint" />
            <mxPoint x="434.74" y="460.01" as="targetPoint" />
            <Array as="points">
              <mxPoint x="434" y="380" />
              <mxPoint x="434" y="430" />
            </Array>
          </mxGeometry>
        </mxCell>
        <mxCell id="yHdLgCbYJAdLB_9oFA_i-106" value="有る" style="edgeLabel;html=1;align=center;verticalAlign=middle;resizable=0;points=[];" vertex="1" connectable="0" parent="yHdLgCbYJAdLB_9oFA_i-101">
          <mxGeometry x="-0.3007" relative="1" as="geometry">
            <mxPoint as="offset" />
          </mxGeometry>
        </mxCell>
        <mxCell id="yHdLgCbYJAdLB_9oFA_i-108" value="echo" style="whiteSpace=wrap;html=1;shadow=0;strokeWidth=1;spacing=6;spacingTop=-1;spacingLeft=1;" vertex="1" parent="WIyWlLk6GJQsqaUBKTNV-1">
          <mxGeometry x="527.25" y="420" width="40.5" height="20" as="geometry" />
        </mxCell>
        <mxCell id="yHdLgCbYJAdLB_9oFA_i-111" value="echo" style="whiteSpace=wrap;html=1;shadow=0;strokeWidth=1;spacing=6;spacingTop=-1;spacingLeft=1;" vertex="1" parent="WIyWlLk6GJQsqaUBKTNV-1">
          <mxGeometry x="639.5" y="420" width="40.5" height="20" as="geometry" />
        </mxCell>
        <mxCell id="yHdLgCbYJAdLB_9oFA_i-112" value="echo" style="whiteSpace=wrap;html=1;shadow=0;strokeWidth=1;spacing=6;spacingTop=-1;spacingLeft=1;" vertex="1" parent="WIyWlLk6GJQsqaUBKTNV-1">
          <mxGeometry x="414" y="420" width="40.5" height="20" as="geometry" />
        </mxCell>
        <mxCell id="yHdLgCbYJAdLB_9oFA_i-115" value="" style="edgeStyle=orthogonalEdgeStyle;rounded=0;orthogonalLoop=1;jettySize=auto;html=1;entryX=0.5;entryY=1;entryDx=0;entryDy=0;exitX=1;exitY=0.5;exitDx=0;exitDy=0;" edge="1" parent="WIyWlLk6GJQsqaUBKTNV-1" source="yHdLgCbYJAdLB_9oFA_i-28" target="yHdLgCbYJAdLB_9oFA_i-31">
          <mxGeometry relative="1" as="geometry">
            <mxPoint x="324" y="180" as="sourcePoint" />
            <mxPoint x="324" y="160" as="targetPoint" />
          </mxGeometry>
        </mxCell>
      </root>
    </mxGraphModel>
  </diagram>
</mxfile>
